<?xml version="1.0" encoding="UTF-8"?>
<svg version="1.1" xmlns="http://www.w3.org/2000/svg" width="1024" height="1024" viewBox="100 100 824 824">
<path d="M0 0 C2.78259277 3.79630807 3.28285822 7.62413582 4.11572266 12.20239258 C4.31791412 13.2381543 4.52010559 14.27391602 4.72842407 15.34106445 C5.19430469 17.72892822 5.65386861 20.11802949 6.10852051 22.50805664 C6.95588099 26.95069191 7.84230628 31.38524343 8.73193359 35.81958008 C9.06753297 37.49348701 9.40311922 39.16739658 9.73869324 40.84130859 C9.91035696 41.69749786 10.08202068 42.55368713 10.25888634 43.43582153 C11.16597375 47.96785208 12.06650177 52.50118533 12.9675293 57.03442383 C19.50481085 89.90790421 26.09774223 122.76830049 32.95166016 155.57739258 C33.10633381 156.31783058 33.26100746 157.05826859 33.42036819 157.8211441 C37.80705134 178.81109717 42.24520524 199.79019975 46.77818298 220.74908447 C47.48569089 224.02436736 48.18767417 227.3008145 48.88916016 230.57739258 C49.11007324 231.59736328 49.33098633 232.61733398 49.55859375 233.66821289 C49.74373535 234.54832031 49.92887695 235.42842773 50.11962891 236.33520508 C50.34815552 237.40859131 50.34815552 237.40859131 50.58129883 238.50366211 C50.93465705 240.88385618 50.94087007 243.1745877 50.88916016 245.57739258 C51.37980957 245.22136963 51.87045898 244.86534668 52.37597656 244.49853516 C72.52005577 229.95675182 93.65476049 217.64241783 115.88916016 206.57739258 C116.68902344 206.17568848 117.48888672 205.77398438 118.31298828 205.36010742 C146.84783251 191.20725886 200.87126642 168.23809467 232.45166016 178.76489258 C237.81887833 182.75590097 238.95085103 188.66551856 240.57666016 194.83129883 C240.95868843 196.24060921 240.95868843 196.24060921 241.34843445 197.6783905 C241.90629557 199.73894293 242.46076739 201.80041518 243.01229858 203.8626709 C244.54497183 209.59095249 246.10401376 215.31208316 247.65869141 221.03442383 C248.15959038 222.88219925 248.15959038 222.88219925 248.67060852 224.76730347 C252.49010806 238.83760032 256.41338764 252.87870718 260.34310913 266.91854858 C261.36978249 270.58686579 262.39440866 274.25575099 263.41834736 277.92483234 C267.08465571 291.06100662 270.76191039 304.19311426 274.54541016 317.29614258 C275.07325857 319.1323775 275.60101377 320.96863922 276.12866211 322.80493164 C277.05547595 326.02923894 277.99549283 329.2492295 278.94458008 332.46704102 C279.34717555 333.86305696 279.74930985 335.25920603 280.15087891 336.65551758 C280.49078857 337.81470703 280.83069824 338.97389648 281.1809082 340.16821289 C282.08980599 344.54320381 283.10548673 349.64403398 280.62353516 353.58911133 C276.79152881 355.77266449 271.06845441 353.77475479 266.87963867 353.07373047 C255.45298899 351.32612522 244.12047288 351.17943481 232.57666016 351.20239258 C231.54581299 351.2029364 230.51496582 351.20348022 229.45288086 351.20404053 C159.83296899 351.37195148 84.67935593 369.81958674 25.88916016 407.57739258 C30.29559906 407.57739258 33.93054471 406.54336451 38.10400391 405.30395508 C39.816498 404.80786744 41.52923788 404.31262768 43.2421875 403.81811523 C44.60401154 403.42308807 44.60401154 403.42308807 45.99334717 403.02008057 C118.00630335 382.23729747 191.48251884 371.4006128 266.47128296 375.2171936 C267.89943994 375.28979063 269.32785834 375.35743956 270.75650024 375.41976929 C272.71320053 375.50957384 274.66848779 375.62872444 276.62353516 375.74926758 C277.71891602 375.81210937 278.81429687 375.87495117 279.94287109 375.93969727 C283.66259478 376.7447949 285.27329563 377.80977053 287.88916016 380.57739258 C289.06171021 383.15242938 289.96271616 385.47983714 290.78369141 388.15942383 C291.02077316 388.89182785 291.25785492 389.62423187 291.50212097 390.37882996 C291.99813921 391.92366113 292.48597512 393.47114072 292.96606445 395.02099609 C293.69803195 397.37820837 294.4582893 399.72481271 295.22314453 402.0715332 C295.70336939 403.57945348 296.18194002 405.08790177 296.65869141 406.59692383 C296.88361771 407.29195511 297.10854401 407.98698639 297.34028625 408.70307922 C298.69154003 413.12096661 299.43035527 416.97197485 298.88916016 421.57739258 C297.41423035 424.25100708 297.41423035 424.25100708 294.88916016 426.57739258 C291.77161247 427.04443915 289.21037481 427.19187309 286.09863281 427.11328125 C285.20989471 427.1107988 284.32115662 427.10831635 283.40548706 427.10575867 C280.45407529 427.0920421 277.5042605 427.04328625 274.55322266 426.99536133 C272.47848062 426.98092869 270.40371953 426.96903449 268.32894897 426.95954895 C262.83936369 426.929062 257.35046226 426.87047692 251.86120605 426.80413818 C242.13383659 426.69008044 232.40606266 426.61743177 222.67822266 426.55786133 C221.63113884 426.55108494 220.58405502 426.54430855 219.50524139 426.53732681 C202.5352162 426.44151199 185.78847487 426.93402905 168.88916016 428.57739258 C167.94260559 428.66717377 166.99605103 428.75695496 166.02081299 428.84945679 C160.13197603 429.42096363 154.26018099 430.09693648 148.38916016 430.82739258 C147.51960693 430.93343811 146.65005371 431.03948364 145.75415039 431.14874268 C93.29067451 437.56433165 39.71084617 446.40649936 -9.57177734 466.15942383 C-21.13749506 470.59276265 -31.8912313 472.09394541 -44.16625977 472.0234375 C-46.41109525 472.01493893 -48.65336352 472.04379102 -50.89794922 472.07543945 C-64.78706207 472.14444352 -77.09203122 469.15145232 -89.92333984 463.82739258 C-137.95033189 444.89769466 -191.58985138 436.60793633 -242.66564941 430.85601807 C-245.14037741 430.57402682 -247.61338451 430.27954537 -250.08642578 429.9831543 C-274.59384929 427.08539727 -298.95757093 426.21910391 -323.61083984 426.26489258 C-324.29311771 426.26594875 -324.97539558 426.26700493 -325.67834854 426.26809311 C-338.2415168 426.29258317 -350.80155651 426.35131279 -363.35302734 426.92749023 C-364.02257195 426.95679658 -364.69211655 426.98610292 -365.38195038 427.01629734 C-368.57747566 427.15686813 -371.77032206 427.31392833 -374.96350098 427.50114441 C-376.09300171 427.55442398 -377.22250244 427.60770355 -378.38623047 427.66259766 C-379.37449829 427.71821365 -380.36276611 427.77382965 -381.38098145 427.83113098 C-385.60491162 427.43851967 -388.16587842 425.522354 -391.11083984 422.57739258 C-392.57464275 414.72065454 -389.83675472 407.09312353 -387.43041992 399.70751953 C-386.79528536 397.75550497 -386.18298723 395.79738623 -385.57373047 393.8371582 C-381.16958063 379.98019897 -381.16958063 379.98019897 -377.24267578 377.30444336 C-372.77915956 375.78218599 -368.03578322 375.77140725 -363.36083984 375.45239258 C-362.14364258 375.36892578 -360.92644531 375.28545898 -359.67236328 375.19946289 C-309.99004435 372.17982306 -259.94065044 376.19912032 -211.11083984 385.57739258 C-209.96583008 385.79621094 -208.82082031 386.0150293 -207.64111328 386.24047852 C-176.04601261 392.35709115 -144.90540997 400.26012939 -114.11083984 409.57739258 C-165.87961617 375.17661489 -227.81225615 359.09862793 -289.11083984 352.57739258 C-289.82013138 352.4944696 -290.52942291 352.41154663 -291.26020813 352.32611084 C-297.73352842 351.60981151 -304.13610862 351.40164308 -310.64599609 351.37426758 C-311.72352646 351.3685675 -312.80105682 351.36286743 -313.91123962 351.35699463 C-316.18113236 351.34760071 -318.4510384 351.34103315 -320.72094727 351.3371582 C-324.13957381 351.32748809 -327.55758913 351.29642433 -330.97607422 351.26489258 C-342.22267124 351.21294383 -352.81767917 351.56597771 -363.81567383 354.02758789 C-367.04236302 354.56596709 -369.02413787 354.59024373 -372.11083984 353.57739258 C-374.11083984 351.57739258 -374.11083984 351.57739258 -374.36962891 347.97192383 C-374.24936312 343.50175242 -373.24926835 339.52892926 -371.97021484 335.26489258 C-371.73626007 334.45178619 -371.5023053 333.63867981 -371.26126099 332.80093384 C-370.74492008 331.01004232 -370.22384616 329.22051032 -369.69866943 327.43218994 C-368.20686295 322.34904981 -366.75232476 317.25516401 -365.29052734 312.16333008 C-364.96637848 311.03808929 -364.64222961 309.91284851 -364.30825806 308.75350952 C-360.20972915 294.50143147 -356.25516286 280.20932372 -352.29382324 265.91864014 C-351.20556091 261.9932413 -350.11483764 258.06853152 -349.02320862 254.14406776 C-345.14515146 240.20160429 -341.27492065 226.25808776 -337.52490234 212.28051758 C-337.01471816 210.3877579 -336.50446775 208.49501607 -335.99414062 206.60229492 C-335.10241418 203.29327197 -334.22484458 199.98098235 -333.35644531 196.66577148 C-332.9730003 195.23773817 -332.58908485 193.80983104 -332.20458984 192.38208008 C-331.89199219 191.19598145 -331.57939453 190.00988281 -331.25732422 188.7878418 C-329.76404795 184.60628665 -327.87876554 180.82175407 -324.18505859 178.22192383 C-292.30828115 168.3167105 -244.02725391 189.85417039 -215.11083984 202.57739258 C-215.11083984 199.65162593 -215.52984292 197.97953759 -216.46508789 195.25 C-216.91340973 193.93059418 -216.91340973 193.93059418 -217.37078857 192.58453369 C-217.70137268 191.62698181 -218.03195679 190.66942993 -218.37255859 189.68286133 C-218.7146637 188.68043396 -219.0567688 187.67800659 -219.40924072 186.64520264 C-220.14852851 184.48109811 -220.88995518 182.31772334 -221.63327026 180.15499878 C-222.80598214 176.74265512 -223.9728886 173.32837389 -225.13842773 169.91357422 C-228.664559 159.59077054 -232.21133534 149.27524919 -235.78271484 138.96801758 C-242.29178314 120.15861206 -248.47344873 101.29524426 -254.05273438 82.18676758 C-254.77780666 79.71342456 -255.51921197 77.24482789 -256.27441406 74.78051758 C-256.64195801 73.55848633 -257.00950195 72.33645508 -257.38818359 71.08911133 C-257.7160498 70.00460693 -258.04782227 68.92010254 -258.38964844 67.80273438 C-259.48968415 62.88310954 -260.07952109 59.24138135 -257.47753906 54.77172852 C-254.75372936 52.24628994 -252.81106204 51.44879085 -249.24365234 50.46801758 C-248.08639648 50.14639648 -246.92914063 49.82477539 -245.73681641 49.4934082 C-239.83971267 48.00364701 -233.92824594 46.62444631 -227.98583984 45.32739258 C-225.94315931 44.87502548 -223.90091211 44.42073315 -221.85865784 43.96644592 C-220.43906623 43.65083687 -219.01933602 43.33585058 -217.59947205 43.02146912 C-210.42589026 41.43189197 -203.26519422 39.78746273 -196.10449219 38.14102173 C-177.46106499 33.85761399 -158.79106289 29.69700177 -140.11083984 25.57739258 C-138.88950348 25.30798859 -138.88950348 25.30798859 -137.64349365 25.03314209 C-124.80218157 22.20125691 -111.95765476 19.38420253 -99.11083984 16.57739258 C-98.28058289 16.39587646 -97.45032593 16.21436035 -96.59490967 16.02734375 C-77.81384465 11.92204237 -59.03222274 7.84585797 -40.16015625 4.17602539 C-36.81148354 3.51862383 -33.46711977 2.84132506 -30.12255859 2.16333008 C-27.78539605 1.69679815 -25.44815828 1.23064286 -23.11083984 0.76489258 C-22.04196533 0.54551025 -20.97309082 0.32612793 -19.87182617 0.10009766 C-4.3755719 -2.94893101 -4.3755719 -2.94893101 0 0 Z " fill="#032A63" transform="translate(666.1875,221.0625)"/>
<path d="M0 0 C5.13855004 0.0565578 9.94567897 0.73122073 14.96484375 1.7890625 C16.25455078 2.05638184 16.25455078 2.05638184 17.5703125 2.32910156 C42.92639734 7.80623831 66.42581482 18.64690457 89.52734375 30.1640625 C90.33864746 30.5677002 91.14995117 30.97133789 91.98583984 31.38720703 C109.64955094 40.25178028 125.97152348 51.00215699 141.52734375 63.1640625 C142.42582031 63.86015625 143.32429687 64.55625 144.25 65.2734375 C146.70406252 67.20476475 149.11972844 69.1751629 151.52734375 71.1640625 C152.5225 71.97359375 153.51765625 72.783125 154.54296875 73.6171875 C168.27347401 84.96385374 181.68761578 97.58685892 192.609375 111.69140625 C194.75694185 114.46006168 197.04513783 117.0788249 199.33984375 119.7265625 C216.90223699 140.77961775 244.06179775 177.78941363 243.52734375 206.1640625 C238.526574 202.63410738 234.02572109 198.81186365 229.58984375 194.6015625 C209.17810208 175.40433905 184.68680042 160.21178135 159.50146484 148.11865234 C157.58000399 147.18952645 155.67249633 146.23598674 153.765625 145.27734375 C140.1242934 138.52304864 125.81841689 133.35132409 111.52734375 128.1640625 C110.52348633 127.79780762 109.51962891 127.43155273 108.48535156 127.05419922 C81.1002567 117.17644378 52.26235566 109.7764552 23.52734375 105.1640625 C22.14627441 104.93879883 22.14627441 104.93879883 20.73730469 104.70898438 C3.11069613 101.91627836 -14.67163516 101.08208773 -32.47265625 100.1640625 C-29.7722924 89.13369005 -26.86922995 78.17484042 -23.8125 67.23828125 C-23.37680754 65.67329647 -22.94131069 64.10825721 -22.5059967 62.54316711 C-21.37303314 58.47164689 -20.23763627 54.40080952 -19.10162354 50.33013916 C-17.72351397 45.39028115 -16.34821807 40.44963921 -14.97261143 35.50908375 C-13.90225763 31.6649969 -12.83148154 27.8210297 -11.75926208 23.97746277 C-11.56271813 23.27246549 -11.36617418 22.5674682 -11.16367435 21.84110737 C-10.7847224 20.48208275 -10.4054185 19.12315622 -10.02572536 17.76433849 C-8.66508173 12.88572847 -7.35094982 7.99569504 -6.06739807 3.0962677 C-4.9728532 -0.45970436 -3.4757528 0.01279955 0 0 Z " fill="#FBFCFC" transform="translate(260.47265625,547.8359375)"/>
<path d="M0 0 C10.35603532 8.73537252 16.67342799 17.97380437 21.9375 30.3125 C22.32164062 31.20324219 22.70578125 32.09398437 23.1015625 33.01171875 C27.94414067 47.06424699 26.39351362 65.8440521 20.07568359 79.12402344 C12.10780435 94.97691266 0.766045 106.04629989 -16.0625 112.3125 C-16.90425781 112.6321875 -17.74601562 112.951875 -18.61328125 113.28125 C-35.25597001 118.48359554 -53.3991599 116.46631415 -68.84375 108.9609375 C-75.37066295 105.35501955 -80.76068107 100.51271612 -86.0625 95.3125 C-86.61679687 94.78269531 -87.17109375 94.25289062 -87.7421875 93.70703125 C-100.87808607 79.89658654 -103.86082299 62.1202457 -103.4140625 43.8359375 C-103.09925377 37.13889128 -101.77413824 31.48258832 -99.0625 25.3125 C-98.51916016 24.00152344 -98.51916016 24.00152344 -97.96484375 22.6640625 C-89.92416624 4.94731545 -75.55864748 -4.65919945 -58.25390625 -11.85546875 C-38.66520036 -18.36466431 -15.97284486 -12.18143452 0 0 Z " fill="#E1286C" transform="translate(505.0625,456.6875)"/>
<path d="M0 0 C0.66 0.33 1.32 0.66 2 1 C0.02 2.32 -1.96 3.64 -4 5 C-1.69 5.66 0.62 6.32 3 7 C2.01 7.495 2.01 7.495 1 8 C1 8.66 1 9.32 1 10 C-2.9333595 11.20152572 -6.87224819 12.38379219 -10.8125 13.5625 C-11.93205078 13.90474609 -13.05160156 14.24699219 -14.20507812 14.59960938 C-15.27822266 14.91865234 -16.35136719 15.23769531 -17.45703125 15.56640625 C-18.44678955 15.86490479 -19.43654785 16.16340332 -20.45629883 16.47094727 C-23 17 -23 17 -26 16 C-20.07557178 11.57092025 -13.91765004 7.66403378 -7.5 4 C-6.44039062 3.38523804 -6.44039062 3.38523804 -5.359375 2.75805664 C-3.60798622 1.77353686 -1.80704777 0.87819144 0 0 Z " fill="#F1F4F6" transform="translate(608,729)"/>
<path d="M0 0 C4.8330731 1.67445052 8.9473463 4.29149497 13.25 7 C13.9821875 7.45117188 14.714375 7.90234375 15.46875 8.3671875 C16.51289063 9.02074219 16.51289063 9.02074219 17.578125 9.6875 C18.21137695 10.08324219 18.84462891 10.47898437 19.49707031 10.88671875 C21 12 21 12 22 14 C19.10499713 13.29863332 16.2147225 12.58298618 13.328125 11.84765625 C11.23913101 11.31560027 9.14580104 10.80000897 7.046875 10.30859375 C0.43118878 8.61598397 0.43118878 8.61598397 -1.75 5.5 C-2 3 -2 3 0 0 Z " fill="#E8EFF2" transform="translate(423,733)"/>
<path d="M0 0 C-0.99 0.33 -1.98 0.66 -3 1 C-3 1.66 -3 2.32 -3 3 C-4.65 3 -6.3 3 -8 3 C-8.66 4.32 -9.32 5.64 -10 7 C-11.32 7 -12.64 7 -14 7 C-14 6.34 -14 5.68 -14 5 C-14.57967529 5.09087891 -15.15935059 5.18175781 -15.7565918 5.27539062 C-18.39963588 5.68749945 -21.04354162 6.09380017 -23.6875 6.5 C-24.59951172 6.64308594 -25.51152344 6.78617187 -26.45117188 6.93359375 C-27.78051758 7.13662109 -27.78051758 7.13662109 -29.13671875 7.34375 C-30.35427856 7.53227539 -30.35427856 7.53227539 -31.59643555 7.72460938 C-34.08533405 8.00977723 -36.49706689 8.04674739 -39 8 C-34.37310091 4.9154006 -29.16896039 4.38058059 -23.76806641 3.28564453 C-21.76892923 2.8788518 -19.77318244 2.45779864 -17.77734375 2.03515625 C-16.50503906 1.77347656 -15.23273438 1.51179688 -13.921875 1.2421875 C-12.76268555 1.0035498 -11.60349609 0.76491211 -10.40917969 0.51904297 C-6.88711243 -0.01718698 -3.55700106 -0.09002916 0 0 Z " fill="#C92660" transform="translate(518,342)"/>
<path d="M0 0 C-2.71942096 1.46162662 -5.21041115 2.407571 -8.22265625 3.0703125 C-9.40118164 3.33134766 -9.40118164 3.33134766 -10.60351562 3.59765625 C-11.41498047 3.77167969 -12.22644531 3.94570313 -13.0625 4.125 C-13.87783203 4.30675781 -14.69316406 4.48851562 -15.53320312 4.67578125 C-18.78253751 5.38598909 -21.66079974 6 -25 6 C-25 6.66 -25 7.32 -25 8 C-23.68 8.33 -22.36 8.66 -21 9 C-27.93 9 -34.86 9 -42 9 C-42 8.67 -42 8.34 -42 8 C-36.98474769 6.8524358 -31.96766473 5.71338388 -26.94873047 4.58203125 C-25.24312814 4.19632114 -23.53804051 3.80832743 -21.83349609 3.41796875 C-19.37730947 2.85589919 -16.91936301 2.30218352 -14.4609375 1.75 C-13.70444916 1.57500977 -12.94796082 1.40001953 -12.16854858 1.21972656 C-8.02966841 0.29939673 -4.271117 -0.18903976 0 0 Z " fill="#C3285F" transform="translate(437,359)"/>
<path d="M0 0 C2.475 0.99 2.475 0.99 5 2 C4.34 3.32 3.68 4.64 3 6 C2.34 6 1.68 6 1 6 C1.26676204 7.98491642 1.26676204 7.98491642 2 10 C2.99 10.33 3.98 10.66 5 11 C4.01 11.495 4.01 11.495 3 12 C0.54961707 10.75717988 -1.773325 9.47117661 -4.125 8.0625 C-4.78371094 7.67642578 -5.44242187 7.29035156 -6.12109375 6.89257812 C-7.751613 5.93553422 -9.37636184 4.96867185 -11 4 C-10.34 3.67 -9.68 3.34 -9 3 C-8.34 3.33 -7.68 3.66 -7 4 C-6.67 3.34 -6.34 2.68 -6 2 C-4.0625 1.3125 -4.0625 1.3125 -2 1 C-1.34 1.33 -0.68 1.66 0 2 C0 1.34 0 0.68 0 0 Z " fill="#DE2F73" transform="translate(368,543)"/>
<path d="M0 0 C1.86819458 -0.08227539 1.86819458 -0.08227539 4.81570435 0.11889648 C5.80570435 1.10889648 6.79570435 2.09889648 7.81570435 3.11889648 C-22.37929565 2.62389648 -22.37929565 2.62389648 -53.18429565 2.11889648 C-53.18429565 1.78889648 -53.18429565 1.45889648 -53.18429565 1.11889648 C-46.04930515 0.97550623 -38.91429351 0.83320502 -31.77926636 0.69165039 C-29.35348014 0.64339698 -26.92769881 0.59489697 -24.50192261 0.54614258 C-21.00934088 0.47599029 -17.51674235 0.40673338 -14.0241394 0.33764648 C-12.94470566 0.31577271 -11.86527191 0.29389893 -10.75312805 0.2713623 C-8.76151718 0.23229088 -6.7698052 0.19794286 -4.77801514 0.16943359 C-3.18464478 0.1383877 -1.59131708 0.08661923 0 0 Z " fill="#073372" transform="translate(821.1842956542969,711.881103515625)"/>
<path d="M0 0 C11.86906862 -0.91889563 23.40192476 1.78298104 35 4 C35 4.33 35 4.66 35 5 C29.62374766 5.84888195 25.34629602 6.0024305 20 5 C20 4.67 20 4.34 20 4 C16.04 3.67 12.08 3.34 8 3 C8 2.34 8 1.68 8 1 C5.36 1 2.72 1 0 1 C0 0.67 0 0.34 0 0 Z " fill="#081946" transform="translate(259,650)"/>
<path d="M0 0 C2.64 0 5.28 0 8 0 C3.76790414 4.50513431 -0.88695859 8.514292 -6 12 C-6.66 12 -7.32 12 -8 12 C-7.75 9.125 -7.75 9.125 -7 6 C-5.0625 4.8125 -5.0625 4.8125 -3 4 C-2.34 3.01 -1.68 2.02 -1 1 C-1 1.66 -1 2.32 -1 3 C-0.01 3 0.98 3 2 3 C2 2.34 2 1.68 2 1 C1.34 0.67 0.68 0.34 0 0 Z " fill="#E13175" transform="translate(595,587)"/>
<path d="M0 0 C0.66 0 1.32 0 2 0 C2.33 0.66 2.66 1.32 3 2 C3.66 1.34 4.32 0.68 5 0 C5.50904657 1.87256417 6.00682455 3.74819341 6.5 5.625 C6.7784375 6.66914062 7.056875 7.71328125 7.34375 8.7890625 C7.99118596 11.95687418 8.1161292 14.77741467 8 18 C7.7525 17.4225 7.505 16.845 7.25 16.25 C6.0681388 13.86733113 6.0681388 13.86733113 3.875 11.9375 C2 10 2 10 2 7 C1.34 7 0.68 7 0 7 C0 4.69 0 2.38 0 0 Z " fill="#D12261" transform="translate(593,527)"/>
<path d="M0 0 C0.99 0.495 0.99 0.495 2 1 C2.68603516 3.42089844 2.68603516 3.42089844 3.2890625 6.609375 C3.50820313 7.75664062 3.72734375 8.90390625 3.953125 10.0859375 C4.17484375 11.29507812 4.3965625 12.50421875 4.625 13.75 C4.85445312 14.94367188 5.08390625 16.13734375 5.3203125 17.3671875 C7.14827279 27.0945476 7.14827279 27.0945476 7 32 C6.34 30.68 5.68 29.36 5 28 C4.34 28 3.68 28 3 28 C3.061875 26.783125 3.12375 25.56625 3.1875 24.3125 C3.2126452 19.01524406 2.00127227 14.21315737 0.65625 9.11328125 C-0.00405912 5.98074333 -0.11481316 3.19084919 0 0 Z " fill="#C6225D" transform="translate(560,346)"/>
<path d="M0 0 C0.99 0.99 1.98 1.98 3 3 C4.32 2.01 5.64 1.02 7 0 C8.32 0.66 9.64 1.32 11 2 C9.35 4.97 7.7 7.94 6 11 C3.05321567 8.05321567 1.67958081 5.75906182 0 2 C0 1.34 0 0.68 0 0 Z " fill="#EEB3D0" transform="translate(507,680)"/>
<path d="M0 0 C3.66541254 5.4981188 4.34357529 12.47206957 4 19 C2.79371992 16.66785852 1.8345262 14.50357861 1 12 C0.67 14.31 0.34 16.62 0 19 C-0.66 19 -1.32 19 -2 19 C-2.33 19.99 -2.66 20.98 -3 22 C-2.67 17.71 -2.34 13.42 -2 9 C-1.34 9 -0.68 9 0 9 C0 6.03 0 3.06 0 0 Z " fill="#CC2460" transform="translate(579,440)"/>
<path d="M0 0 C0.99 0 1.98 0 3 0 C5.28571429 8.42857143 5.28571429 8.42857143 5 13 C2.69 11.35 0.38 9.7 -2 8 C-1.47731534 5.23723823 -0.89130413 2.6739124 0 0 Z " fill="#ECF0F3" transform="translate(499,741)"/>
<path d="M0 0 C4.75 1.875 4.75 1.875 7 3 C6.67 4.65 6.34 6.3 6 8 C6.66 8.33 7.32 8.66 8 9 C5.36 8.67 2.72 8.34 0 8 C-1.125 5.6875 -1.125 5.6875 -2 3 C-1.34 2.01 -0.68 1.02 0 0 Z " fill="#F2F4F6" transform="translate(423,733)"/>
<path d="M0 0 C0.33 0.66 0.66 1.32 1 2 C0.10375977 4.15478516 0.10375977 4.15478516 -1.30859375 6.7890625 C-1.80810547 7.73007812 -2.30761719 8.67109375 -2.82226562 9.640625 C-3.35529297 10.62546875 -3.88832031 11.6103125 -4.4375 12.625 C-4.96666016 13.61757813 -5.49582031 14.61015625 -6.04101562 15.6328125 C-7.3536054 18.09244018 -8.67351346 20.54784707 -10 23 C-10.33 22.01 -10.66 21.02 -11 20 C-10 18 -10 18 -9 16 C-8.61250787 13.67504723 -8.27017161 11.34148732 -8 9 C-6.68 8.67 -5.36 8.34 -4 8 C-4 6.35 -4 4.7 -4 3 C-3.34 3 -2.68 3 -2 3 C-1.34 2.01 -0.68 1.02 0 0 Z " fill="#081B49" transform="translate(539,703)"/>
<path d="M0 0 C2 1 2 1 2.8515625 3.28515625 C3.10679687 4.20167969 3.36203125 5.11820313 3.625 6.0625 C3.88539063 6.98160156 4.14578125 7.90070312 4.4140625 8.84765625 C4.60742188 9.55792969 4.80078125 10.26820313 5 11 C2.03 10.01 -0.94 9.02 -4 8 C-3.67 7.01 -3.34 6.02 -3 5 C-2.34 5 -1.68 5 -1 5 C-0.67 3.35 -0.34 1.7 0 0 Z " fill="#F2F3F6" transform="translate(340,529)"/>
<path d="M0 0 C1.485 0.99 1.485 0.99 3 2 C3.328125 4.03125 3.328125 4.03125 3.25 6.5 C3.22421875 7.38429688 3.1984375 8.26859375 3.171875 9.1796875 C2.91048114 13.46892317 2.50837221 17.73330465 2 22 C1.67 22 1.34 22 1 22 C-0.17402193 14.66236293 -0.09377123 7.41834582 0 0 Z " fill="#14356E" transform="translate(675,430)"/>
<path d="M0 0 C0.66 0 1.32 0 2 0 C2.22174933 1.45635371 2.42698698 2.91522956 2.625 4.375 C2.74101563 5.18710937 2.85703125 5.99921875 2.9765625 6.8359375 C2.98429688 7.55007813 2.99203125 8.26421875 3 9 C1 11 1 11 -1.625 11.125 C-2.40875 11.08375 -3.1925 11.0425 -4 11 C-4 10.34 -4 9.68 -4 9 C-3.01 8.67 -2.02 8.34 -1 8 C-0.67 5.36 -0.34 2.72 0 0 Z " fill="#112F5F" transform="translate(836,680)"/>
<path d="M0 0 C0.66 0.33 1.32 0.66 2 1 C3.29930238 5.28769786 3.07516774 9.56510345 3 14 C2.01 13.67 1.02 13.34 0 13 C-0.19397476 11.02145742 -0.38001321 9.0421352 -0.5625 7.0625 C-0.66691406 5.96035156 -0.77132813 4.85820312 -0.87890625 3.72265625 C-0.91886719 2.82417969 -0.95882813 1.92570312 -1 1 C-0.67 0.67 -0.34 0.34 0 0 Z " fill="#0F2A5D" transform="translate(386,309)"/>
<path d="M0 0 C0.33 0.66 0.66 1.32 1 2 C-3.95 2.33 -8.9 2.66 -14 3 C-13.67 2.01 -13.34 1.02 -13 0 C-8.38411065 -1.013244 -4.62927172 -0.99847037 0 0 Z " fill="#102E65" transform="translate(584,230)"/>
<path d="M0 0 C-5.33797969 1.92457771 -10.3342663 3.3462615 -16 4 C-17.66934283 4.31966139 -19.3373217 4.64731066 -21 5 C-21 4.34 -21 3.68 -21 3 C-18.06449875 2.30278105 -15.12712524 1.61690995 -12.1875 0.9375 C-11.35412109 0.73833984 -10.52074219 0.53917969 -9.66210938 0.33398438 C-8.85966797 0.15029297 -8.05722656 -0.03339844 -7.23046875 -0.22265625 C-6.12288208 -0.48187866 -6.12288208 -0.48187866 -4.99291992 -0.74633789 C-3 -1 -3 -1 0 0 Z " fill="#F02670" transform="translate(433,362)"/>
<path d="M0 0 C2.51699845 2.51699845 3.10964078 4.57554146 4 8 C3.625 10.375 3.625 10.375 3 12 C3 11.34 3 10.68 3 10 C2.34 10 1.68 10 1 10 C0.731875 9.4225 0.46375 8.845 0.1875 8.25 C-1.01719859 5.9674132 -2.40798115 4.0262058 -4 2 C-3.01 2 -2.02 2 -1 2 C-0.67 1.34 -0.34 0.68 0 0 Z " fill="#D82464" transform="translate(375,542)"/>
<path d="M0 0 C2.1875 1.3125 2.1875 1.3125 4 3 C4 3.66 4 4.32 4 5 C2.58249437 4.88490339 1.16598831 4.75746342 -0.25 4.625 C-1.03890625 4.55539062 -1.8278125 4.48578125 -2.640625 4.4140625 C-5.085877 3.98492887 -6.84836903 3.21399362 -9 2 C-7 1 -7 1 -3 1 C-2.01 0.67 -1.02 0.34 0 0 Z " fill="#081D4F" transform="translate(486,801)"/>
<path d="M0 0 C-2.57784846 2.64752004 -4.91648098 4.94432065 -8 7 C-7.74438677 4.6568787 -7.40729228 2.32156597 -7 0 C-4.3333581 -1.33332095 -2.83319697 -0.67102033 0 0 Z " fill="#E8EDF2" transform="translate(527,748)"/>
<path d="M0 0 C0 3.78405089 -1.1678033 5.11032647 -3.3125 8.1875 C-3.92738281 9.08855469 -4.54226563 9.98960937 -5.17578125 10.91796875 C-5.77777344 11.60503906 -6.37976563 12.29210937 -7 13 C-7.99 13 -8.98 13 -10 13 C-8.48446596 9.52224821 -6.4226544 7.0442016 -3.875 4.25 C-3.15054688 3.45078125 -2.42609375 2.6515625 -1.6796875 1.828125 C-0.84824219 0.92320312 -0.84824219 0.92320312 0 0 Z " fill="#0A184E" transform="translate(554,632)"/>
<path d="M0 0 C2 1 2 1 2.8515625 3.328125 C3.10679687 4.29234375 3.36203125 5.2565625 3.625 6.25 C3.88539063 7.20390625 4.14578125 8.1578125 4.4140625 9.140625 C4.97044392 11.85576635 5.11083497 14.23920177 5 17 C1.1369136 11.2053704 -0.15888707 6.99103122 0 0 Z " fill="#12204B" transform="translate(821,618)"/>
<path d="M0 0 C0.28875 0.639375 0.5775 1.27875 0.875 1.9375 C1.82823451 4.15206079 1.82823451 4.15206079 4 5 C4 9.62 4 14.24 4 19 C1.9539332 15.93089979 1.49086694 14.19311799 0.875 10.625 C0.70742188 9.68914062 0.53984375 8.75328125 0.3671875 7.7890625 C0.02009412 5.15262977 -0.06758274 2.65503612 0 0 Z " fill="#76C4E0" transform="translate(603,443)"/>
<path d="M0 0 C0.33 0 0.66 0 1 0 C1.12117187 0.78246094 1.24234375 1.56492187 1.3671875 2.37109375 C1.53476562 3.38300781 1.70234375 4.39492188 1.875 5.4375 C2.03742187 6.44683594 2.19984375 7.45617187 2.3671875 8.49609375 C2.57601562 9.32238281 2.78484375 10.14867187 3 11 C3.66 11.33 4.32 11.66 5 12 C4.67 14.64 4.34 17.28 4 20 C0.67554357 13.93775593 -0.36108506 6.86061613 0 0 Z " fill="#78C3DE" transform="translate(587,363)"/>
<path d="M0 0 C0.97582031 0.00902344 1.95164062 0.01804687 2.95703125 0.02734375 C3.69308594 0.03894531 4.42914062 0.05054688 5.1875 0.0625 C5.1875 0.3925 5.1875 0.7225 5.1875 1.0625 C3.2075 1.0625 1.2275 1.0625 -0.8125 1.0625 C-0.8125 1.7225 -0.8125 2.3825 -0.8125 3.0625 C-6.8671875 3.2578125 -6.8671875 3.2578125 -8.8125 3.0625 C-9.4725 2.4025 -10.1325 1.7425 -10.8125 1.0625 C-7.13862505 0.20951624 -3.7677607 -0.04539471 0 0 Z " fill="#081847" transform="translate(727.8125,714.9375)"/>
<path d="M0 0 C0.66 0 1.32 0 2 0 C2 0.99 2 1.98 2 3 C2.99 3.33 3.98 3.66 5 4 C4.34 5.65 3.68 7.3 3 9 C2.34 9 1.68 9 1 9 C0.67 6.03 0.34 3.06 0 0 Z " fill="#78C8E9" transform="translate(625,547)"/>
<path d="M0 0 C0.28875 0.61875 0.5775 1.2375 0.875 1.875 C1.93720042 4.13325765 1.93720042 4.13325765 4 6 C3.96712417 8.72869407 3.43602229 11.2966618 3 14 C1 11 1 11 1 7 C0.34 7 -0.32 7 -1 7 C-0.67 4.69 -0.34 2.38 0 0 Z " fill="#ED2B72" transform="translate(598,537)"/>
<path d="M0 0 C0.33 0.66 0.66 1.32 1 2 C1.66 2 2.32 2 3 2 C3 4.97 3 7.94 3 11 C3.66 11.33 4.32 11.66 5 12 C4.67 13.65 4.34 15.3 4 17 C0.68341387 12.0251208 -0.38479461 5.96431647 0 0 Z " fill="#CF1D5E" transform="translate(569,528)"/>
<path d="M0 0 C0.66 0 1.32 0 2 0 C2.103125 0.639375 2.20625 1.27875 2.3125 1.9375 C2.539375 2.618125 2.76625 3.29875 3 4 C3.99 4.33 4.98 4.66 6 5 C5.4740625 5.804375 5.4740625 5.804375 4.9375 6.625 C3.71075751 9.73274763 4.27143569 11.79431703 5 15 C2.68994131 12.68994131 2.27825897 11.16916343 1.375 8.0625 C1.11460937 7.18722656 0.85421875 6.31195313 0.5859375 5.41015625 C0 3 0 3 0 0 Z " fill="#C9205C" transform="translate(312,441)"/>
<path d="M0 0 C4.95 0 9.9 0 15 0 C14.34 0.66 13.68 1.32 13 2 C12.34 1.67 11.68 1.34 11 1 C11 1.99 11 2.98 11 4 C9.35 3.67 7.7 3.34 6 3 C6 2.34 6 1.68 6 1 C4.02 1 2.04 1 0 1 C0 0.67 0 0.34 0 0 Z " fill="#86D7F1" transform="translate(583,260)"/>
<path d="M0 0 C2.64 0 5.28 0 8 0 C8 0.99 8 1.98 8 3 C9.65 3.33 11.3 3.66 13 4 C9.45332822 5.25127906 7.27746562 4.72285053 3.75 3.5625 C2.85796875 3.27503906 1.9659375 2.98757813 1.046875 2.69140625 C0.37140625 2.46324219 -0.3040625 2.23507812 -1 2 C-0.67 1.34 -0.34 0.68 0 0 Z " fill="#112350" transform="translate(442,789)"/>
<path d="M0 0 C4.27568092 2.85045394 6.1811049 4.7379161 7.6875 9.6875 C8.06455078 10.89986328 8.06455078 10.89986328 8.44921875 12.13671875 C8.63097656 12.75160156 8.81273437 13.36648438 9 14 C5.15237434 10.5798883 2.39365978 6.53225744 0 2 C0 1.34 0 0.68 0 0 Z " fill="#091747" transform="translate(471,682)"/>
<path d="M0 0 C0.33 0 0.66 0 1 0 C1.33 1.98 1.66 3.96 2 6 C2.33 6 2.66 6 3 6 C3.125 12.75 3.125 12.75 2 15 C1.34 15 0.68 15 0 15 C0 10.05 0 5.1 0 0 Z " fill="#76CAE6" transform="translate(645,424)"/>
<path d="M0 0 C-0.33 0.66 -0.66 1.32 -1 2 C-8.3625 3.425 -8.3625 3.425 -12 1 C-3.96428571 -1.27678571 -3.96428571 -1.27678571 0 0 Z " fill="#F6F6F9" transform="translate(497,344)"/>
<path d="M0 0 C1.71484375 1.515625 1.71484375 1.515625 3 3 C1.04196493 3.05389087 -0.91648909 3.09274217 -2.875 3.125 C-3.96554687 3.14820313 -5.05609375 3.17140625 -6.1796875 3.1953125 C-9 3 -9 3 -11 1 C-7.30516081 -0.18234854 -3.85646386 -0.2804701 0 0 Z " fill="#11326B" transform="translate(826,712)"/>
<path d="M0 0 C2.00720923 0.28674418 4.0085944 0.61866701 6 1 C4.47793991 3.62901288 3.15634036 5.84365964 1 8 C0.34 5.69 -0.32 3.38 -1 1 C-0.67 0.67 -0.34 0.34 0 0 Z " fill="#FAAECB" transform="translate(346,445)"/>
<path d="M0 0 C0.33 0 0.66 0 1 0 C1.33 4.29 1.66 8.58 2 13 C1.34 13 0.68 13 0 13 C-0.66 9.7 -1.32 6.4 -2 3 C-1.34 3 -0.68 3 0 3 C0 2.01 0 1.02 0 0 Z " fill="#E7EDF1" transform="translate(387,328)"/>
<path d="M0 0 C-0.99 0.33 -1.98 0.66 -3 1 C-3 1.66 -3 2.32 -3 3 C-6.63 3 -10.26 3 -14 3 C-9.25294723 -0.16470185 -5.68228705 -0.10927475 0 0 Z " fill="#C81F5C" transform="translate(518,342)"/>
<path d="M0 0 C-0.639375 0.2475 -1.27875 0.495 -1.9375 0.75 C-4.18741541 1.81562433 -4.18741541 1.81562433 -4.75 4.125 C-4.8325 4.74375 -4.915 5.3625 -5 6 C-5.99 5.67 -6.98 5.34 -8 5 C-7.67 4.34 -7.34 3.68 -7 3 C-8.65 3 -10.3 3 -12 3 C-8.2391768 -0.7608232 -5.0273023 -0.25136512 0 0 Z " fill="#021F53" transform="translate(768,650)"/>
<path d="M0 0 C0.66 0.33 1.32 0.66 2 1 C1.01 1.33 0.02 1.66 -1 2 C-1.59070014 3.94603274 -1.59070014 3.94603274 -2 6 C-2.66 6.66 -3.32 7.32 -4 8 C-4.99 7.01 -5.98 6.02 -7 5 C-4.69 3.35 -2.38 1.7 0 0 Z " fill="#09204F" transform="translate(631,567)"/>
<path d="M0 0 C5 7.5 5 7.5 5 10 C4.34 10 3.68 10 3 10 C2.67 11.32 2.34 12.64 2 14 C-0.29612756 4.58997722 -0.29612756 4.58997722 0 0 Z " fill="#76C4E1" transform="translate(593,394)"/>
<path d="M0 0 C5.75 0.875 5.75 0.875 8 2 C8 2.99 8 3.98 8 5 C5.36 4.34 2.72 3.68 0 3 C0 2.01 0 1.02 0 0 Z " fill="#0E295C" transform="translate(454,792)"/>
<path d="M0 0 C-0.33 0.99 -0.66 1.98 -1 3 C-3.64 3 -6.28 3 -9 3 C-9.33 2.34 -9.66 1.68 -10 1 C-6.52674819 -0.1577506 -3.63932552 -0.06866652 0 0 Z " fill="#091F4E" transform="translate(744,653)"/>
<path d="M0 0 C2.97 0.33 5.94 0.66 9 1 C6 4 6 4 3.95703125 4.07421875 C0.97851562 3.53710938 0.97851562 3.53710938 -2 3 C-1.34 2.67 -0.68 2.34 0 2 C0 1.34 0 0.68 0 0 Z " fill="#0B326D" transform="translate(754,545)"/>
<path d="M0 0 C0.33 0.66 0.66 1.32 1 2 C0.67 2.99 0.34 3.98 0 5 C0.99 5.33 1.98 5.66 3 6 C2.01 6 1.02 6 0 6 C0 7.98 0 9.96 0 12 C-2 10 -2 10 -2.25 6.5625 C-2 3 -2 3 0 0 Z " fill="#C31F58" transform="translate(301,391)"/>
<path d="M0 0 C0.66 1.32 1.32 2.64 2 4 C2.66 4 3.32 4 4 4 C3.67 6.64 3.34 9.28 3 12 C2.34 11.67 1.68 11.34 1 11 C1 8.36 1 5.72 1 3 C0.34 2.67 -0.32 2.34 -1 2 C-0.67 1.34 -0.34 0.68 0 0 Z " fill="#EC266F" transform="translate(564,374)"/>
<path d="M0 0 C-0.33 0.99 -0.66 1.98 -1 3 C-3.31 3.33 -5.62 3.66 -8 4 C-7.67 3.01 -7.34 2.02 -7 1 C-4.53721199 -0.231394 -2.7204945 -0.07159196 0 0 Z " fill="#F6F0F5" transform="translate(441,355)"/>
<path d="M0 0 C5.35048061 0.37328935 7.50912907 1.9957657 11 6 C6.15769772 5.21476179 3.37049384 3.53099355 0 0 Z " fill="#092459" transform="translate(465,796)"/>
<path d="M0 0 C2.97 0 5.94 0 9 0 C8.360625 0.45375 7.72125 0.9075 7.0625 1.375 C4.90297594 2.83921726 4.90297594 2.83921726 4 5 C3.01 5 2.02 5 1 5 C0.67 3.35 0.34 1.7 0 0 Z " fill="#02184A" transform="translate(735,714)"/>
<path d="M0 0 C0.99 0.99 1.98 1.98 3 3 C1.71937515 4.7074998 0.38232443 6.37373596 -1 8 C-1.66 8 -2.32 8 -3 8 C-2.45276317 4.62537285 -1.9451 2.91765 0 0 Z " fill="#0E2259" transform="translate(516,684)"/>
<path d="M0 0 C0.33 1.32 0.66 2.64 1 4 C0.01 4 -0.98 4 -2 4 C-2.28875 4.598125 -2.5775 5.19625 -2.875 5.8125 C-4 8 -4 8 -6 11 C-6.66 10.67 -7.32 10.34 -8 10 C-5.36 6.7 -2.72 3.4 0 0 Z " fill="#0D174D" transform="translate(539,650)"/>
<path d="M0 0 C3.63 0.33 7.26 0.66 11 1 C7.79619983 3.13586678 6.98060033 3.23132175 3.3125 3.125 C2.10013672 3.09792969 2.10013672 3.09792969 0.86328125 3.0703125 C-0.05904297 3.03550781 -0.05904297 3.03550781 -1 3 C-0.67 2.01 -0.34 1.02 0 0 Z " fill="#0A306D" transform="translate(743,652)"/>
<path d="M0 0 C1.98 0 3.96 0 6 0 C3.47043472 3.0916909 0.77545388 3.90931332 -3 5 C-3 4.01 -3 3.02 -3 2 C-2.01 2 -1.02 2 0 2 C0 1.34 0 0.68 0 0 Z " fill="#76C9E7" transform="translate(635,547)"/>
<path d="M0 0 C0.66 0.33 1.32 0.66 2 1 C1.67 3.64 1.34 6.28 1 9 C0.01 9 -0.98 9 -2 9 C-1.125 1.125 -1.125 1.125 0 0 Z " fill="#EFF4F5" transform="translate(226,521)"/>
<path d="M0 0 C3.12270126 2.51830747 3.94523098 3.7261549 4.75 7.75 C4.8325 8.8225 4.915 9.895 5 11 C4.34 11 3.68 11 3 11 C2.49384702 9.73160474 1.99530901 8.46016898 1.5 7.1875 C1.2215625 6.47980469 0.943125 5.77210938 0.65625 5.04296875 C0 3 0 3 0 0 Z " fill="#CC1D5A" transform="translate(331,498)"/>
<path d="M0 0 C-0.66 1.32 -1.32 2.64 -2 4 C-3.65 4 -5.3 4 -7 4 C-7.33 3.01 -7.66 2.02 -8 1 C-5.07175348 0.02391783 -3.04386724 -0.08226668 0 0 Z " fill="#D41F5F" transform="translate(348,379)"/>
<path d="M0 0 C2.475 0.99 2.475 0.99 5 2 C3.71034824 3.37562854 2.37310707 4.70766393 1 6 C0.34 6 -0.32 6 -1 6 C-1.042721 4.33388095 -1.04063832 2.66617115 -1 1 C-0.67 0.67 -0.34 0.34 0 0 Z " fill="#F5F0F6" transform="translate(610,576)"/>
<path d="M0 0 C0.33 0.66 0.66 1.32 1 2 C1.66 2 2.32 2 3 2 C3 5.63 3 9.26 3 13 C1.26315467 9.52630934 0.69915888 7.92380063 0.375 4.25 C0.30023437 3.45078125 0.22546875 2.6515625 0.1484375 1.828125 C0.09945312 1.22484375 0.05046875 0.6215625 0 0 Z " fill="#76C4E2" transform="translate(618,516)"/>
<path d="M0 0 C1.90318884 2.85478326 2.4619099 4.41941308 3.125 7.6875 C3.29257812 8.49574219 3.46015625 9.30398438 3.6328125 10.13671875 C3.75398438 10.75160156 3.87515625 11.36648438 4 12 C3.34 12 2.68 12 2 12 C2 10.68 2 9.36 2 8 C1.34 8 0.68 8 0 8 C0 5.36 0 2.72 0 0 Z " fill="#FAE8F2" transform="translate(307,429)"/>
<path d="M0 0 C0 0.66 0 1.32 0 2 C-6.0546875 2.9765625 -6.0546875 2.9765625 -8 3 C-8.66 2.34 -9.32 1.68 -10 1 C-6.61981469 -0.04005702 -3.5219721 -0.08004482 0 0 Z " fill="#8CDEF3" transform="translate(504,274)"/>
<path d="M0 0 C1.21236328 0.02707031 1.21236328 0.02707031 2.44921875 0.0546875 C3.37154297 0.08949219 3.37154297 0.08949219 4.3125 0.125 C4.3125 0.455 4.3125 0.785 4.3125 1.125 C2.6625 1.455 1.0125 1.785 -0.6875 2.125 C-0.6875 2.455 -0.6875 2.785 -0.6875 3.125 C-2.9975 2.795 -5.3075 2.465 -7.6875 2.125 C-4.48369983 -0.01086678 -3.66810033 -0.10632175 0 0 Z " fill="#0C1C46" transform="translate(710.6875,716.875)"/>
<path d="M0 0 C0.33 0.66 0.66 1.32 1 2 C-1.64 2.33 -4.28 2.66 -7 3 C-7.33 2.34 -7.66 1.68 -8 1 C-5.29120665 -0.35439668 -2.99066732 -0.06501451 0 0 Z " fill="#0B2457" transform="translate(714,659)"/>
<path d="M0 0 C1.48285242 0.95262034 2.96118201 1.91228405 4.4375 2.875 C5.67306641 3.67550781 5.67306641 3.67550781 6.93359375 4.4921875 C9 6 9 6 10 8 C6.66666667 6.66666667 3.33333333 5.33333333 0 4 C0 2.68 0 1.36 0 0 Z " fill="#101A4E" transform="translate(415,583)"/>
<path d="M0 0 C0.33 0.66 0.66 1.32 1 2 C1.66 2 2.32 2 3 2 C4.10844919 5.32534757 3.84454356 7.62182575 3 11 C0.43383368 7.15075052 0.44902324 4.5650696 0 0 Z " fill="#D21D5E" transform="translate(550,443)"/>
<path d="M0 0 C0.99 0.33 1.98 0.66 3 1 C3 2.98 3 4.96 3 7 C1.68 7 0.36 7 -1 7 C-0.67 4.69 -0.34 2.38 0 0 Z " fill="#0F3065" transform="translate(417,333)"/>
<path d="M0 0 C-3.1749094 1.9078584 -5.10585211 2.1609041 -8.75 1.625 C-9.54921875 1.51414062 -10.3484375 1.40328125 -11.171875 1.2890625 C-11.77515625 1.19367188 -12.3784375 1.09828125 -13 1 C-13 0.67 -13 0.34 -13 0 C-8.37078475 -1.0161692 -4.65537393 -0.83796731 0 0 Z " fill="#75C8E7" transform="translate(468,329)"/>
<path d="M0 0 C0.89332031 0.12761719 1.78664063 0.25523437 2.70703125 0.38671875 C3.60808594 0.50660156 4.50914062 0.62648438 5.4375 0.75 C6.12457031 0.85699219 6.81164062 0.96398437 7.51953125 1.07421875 C7.51953125 1.40421875 7.51953125 1.73421875 7.51953125 2.07421875 C3.11038342 3.17650571 -0.96429276 3.15076411 -5.48046875 3.07421875 C-3.68981165 0.76004728 -2.99175075 0.08951695 0 0 Z " fill="#03164A" transform="translate(583.48046875,256.92578125)"/>
<path d="M0 0 C0 0.66 0 1.32 0 2 C1.98 2 3.96 2 6 2 C6 2.33 6 2.66 6 3 C-3.41002278 3.18451025 -3.41002278 3.18451025 -8 2 C-8 1.67 -8 1.34 -8 1 C-2.25 0 -2.25 0 0 0 Z " fill="#052F6E" transform="translate(320,763)"/>
<path d="M0 0 C0.66 0.99 1.32 1.98 2 3 C-0.35438733 4.42944945 -1.48032433 5.08661261 -4.25 4.625 C-4.8275 4.41875 -5.405 4.2125 -6 4 C-4.02 2.68 -2.04 1.36 0 0 Z " fill="#051C4F" transform="translate(576,711)"/>
<path d="M0 0 C-1.28650706 0.69710731 -2.57940665 1.38242876 -3.875 2.0625 C-4.95394531 2.63677734 -4.95394531 2.63677734 -6.0546875 3.22265625 C-6.69664062 3.47917969 -7.33859375 3.73570312 -8 4 C-8.66 3.67 -9.32 3.34 -10 3 C-10 2.34 -10 1.68 -10 1 C-3.375 -1.125 -3.375 -1.125 0 0 Z " fill="#021547" transform="translate(684,574)"/>
<path d="M0 0 C0.66 1.32 1.32 2.64 2 4 C2.66 4 3.32 4 4 4 C4 4.66 4 5.32 4 6 C5.32 6.33 6.64 6.66 8 7 C5 8 5 8 2.875 7.4375 C1 6 1 6 0.25 2.875 C0.1675 1.92625 0.085 0.9775 0 0 Z " fill="#D81B59" transform="translate(343,533)"/>
<path d="M0 0 C0.33 0.66 0.66 1.32 1 2 C1.66 2 2.32 2 3 2 C3 4.64 3 7.28 3 10 C-0.00617269 6.99382731 0.40414684 4.17618402 0 0 Z " fill="#061745" transform="translate(794,638)"/>
<path d="M0 0 C3.36591866 1.44253657 5.51047079 3.33264727 8 6 C7.01 6 6.02 6 5 6 C5 5.34 5 4.68 5 4 C4.01 4.33 3.02 4.66 2 5 C1.34 3.35 0.68 1.7 0 0 Z " fill="#0B194F" transform="translate(427,593)"/>
<path d="M0 0 C0.99 0.495 0.99 0.495 2 1 C2 1.66 2 2.32 2 3 C2.66 3 3.32 3 4 3 C4 4.98 4 6.96 4 9 C1.47740939 7.02579865 1.0070192 6.03254358 0.3125 2.8125 C0.209375 1.884375 0.10625 0.95625 0 0 Z " fill="#D71F62" transform="translate(409,534)"/>
<path d="M0 0 C2.97 0.495 2.97 0.495 6 1 C3.04816899 3.95183101 0.04488053 4.08663988 -4 5 C-4 4.34 -4 3.68 -4 3 C-3.01 2.67 -2.02 2.34 -1 2 C-0.67 1.34 -0.34 0.68 0 0 Z " fill="#FAEBF5" transform="translate(308,384)"/>
<path d="M0 0 C-0.66 0 -1.32 0 -2 0 C-2 0.66 -2 1.32 -2 2 C-5.3 2 -8.6 2 -12 2 C-8.63758153 -1.36241847 -4.39594827 -1.5216744 0 0 Z " fill="#C01954" transform="translate(392,370)"/>
<path d="M0 0 C-0.33 0.99 -0.66 1.98 -1 3 C-2.65 3 -4.3 3 -6 3 C-6 2.01 -6 1.02 -6 0 C-2.25 -1.125 -2.25 -1.125 0 0 Z " fill="#EFF1F3" transform="translate(407,344)"/>
<path d="M0 0 C-0.33 0.99 -0.66 1.98 -1 3 C-2.98 3 -4.96 3 -7 3 C-7.33 2.34 -7.66 1.68 -8 1 C-5.29120665 -0.35439668 -2.99066732 -0.06501451 0 0 Z " fill="#8EDAF1" transform="translate(467,281)"/>
<path d="M0 0 C3.3 0.33 6.6 0.66 10 1 C10 1.33 10 1.66 10 2 C5.545 2.495 5.545 2.495 1 3 C0.67 2.01 0.34 1.02 0 0 Z " fill="#123471" transform="translate(362,771)"/>
<path d="M0 0 C-0.99 1.485 -0.99 1.485 -2 3 C-4.64 2.67 -7.28 2.34 -10 2 C-6.3558226 -0.4294516 -4.28758728 -0.16179575 0 0 Z " fill="#113570" transform="translate(674,769)"/>
<path d="M0 0 C2.66666667 1.33333333 5.33333333 2.66666667 8 4 C8 4.66 8 5.32 8 6 C4.65750371 5.40312566 2.53563658 4.26396123 0 2 C0 1.34 0 0.68 0 0 Z " fill="#243660" transform="translate(497,749)"/>
<path d="M0 0 C2.0625 2.3125 2.0625 2.3125 4 5 C3.67 5.99 3.34 6.98 3 8 C0.9375 6.25 0.9375 6.25 -1 4 C-0.75 1.75 -0.75 1.75 0 0 Z " fill="#FCFCF8" transform="translate(500,746)"/>
<path d="M0 0 C0.66 0 1.32 0 2 0 C1.3125 2.4375 1.3125 2.4375 0 5 C-2.625 5.8125 -2.625 5.8125 -5 6 C-3.625 4 -3.625 4 -2 2 C-1.34 2 -0.68 2 0 2 C0 1.34 0 0.68 0 0 Z " fill="#171B54" transform="translate(587,599)"/>
<path d="M0 0 C1.74627478 2.61941217 2.38722388 4.03824877 3 7 C1.35 6.67 -0.3 6.34 -2 6 C-1.49396008 3.83125748 -1.00016187 2.00032373 0 0 Z " fill="#F3E2EE" transform="translate(342,533)"/>
<path d="M0 0 C2.5 5 2.5 5 3 8 C2.67 8.66 2.34 9.32 2 10 C1.34 10 0.68 10 0 10 C0 6.7 0 3.4 0 0 Z " fill="#F3E3EE" transform="translate(337,518)"/>
</svg>
