<svg width="200" height="200" viewBox="0 0 200 200" fill="none" xmlns="http://www.w3.org/2000/svg">
  <!-- Background: Royal Blue Squircle -->
  <rect x="0" y="0" width="200" height="200" rx="40" fill="#0A2463"/>
  
  <!-- Content Group -->
  <g transform="translate(35, 45)">
    <!-- Handle: Simple White Arch -->
    <path d="M43 0H87C93 0 98 5 98 12V25H32V12C32 5 37 0 43 0Z" stroke="white" stroke-width="10" fill="none"/>
    
    <!-- Body: Book/Suitcase Hybrid -->
    <!-- Left Page (White) -->
    <path d="M65 35V115C65 115 35 125 0 115V35C0 35 30 45 65 45Z" fill="white"/>
    
    <!-- Right Page (Pink) -->
    <path d="M65 35V115C65 115 95 125 130 115V35C130 35 100 45 65 45Z" fill="#D81E5B"/>
    
    <!-- Spine/Center Line -->
    <rect x="63" y="35" width="4" height="85" fill="#0A2463" opacity="0.2"/>
  </g>
</svg>
